<?xml version="1.0" encoding="UTF-8" standalone="no"?>
<!DOCTYPE svg PUBLIC "-//W3C//DTD SVG 1.1//EN" "http://www.w3.org/Graphics/SVG/1.1/DTD/svg11.dtd">
<svg width="100%" height="100%" viewBox="0 0 2479 858" version="1.1" xmlns="http://www.w3.org/2000/svg" xmlns:xlink="http://www.w3.org/1999/xlink" xml:space="preserve" xmlns:serif="http://www.serif.com/" style="fill-rule:evenodd;clip-rule:evenodd;stroke-linejoin:round;stroke-miterlimit:2;">
    <g transform="matrix(1,0,0,1,-2574.3,-2246)">
        <g id="Artboard3" transform="matrix(1.2771,0,0,1,-1401.08,-0.705887)">
            <rect x="3112.81" y="2246.71" width="1940.41" height="857.661" style="fill:none;"/>
            <g transform="matrix(0.783022,-5.55112e-17,8.69329e-17,1,1343.64,1803.76)">
                <path d="M4140.78,1165.28C4079.92,1135.21 4034.65,1076.33 4025.08,1004.03C4015.54,929.566 4047.09,859.331 4100.21,813.655C4127.77,789.958 4375.41,577.036 4375.41,577.036C4375.41,577.036 4353.19,742.365 4353.01,744.358L4527.07,597.211L4439.47,798.107C4523.16,771.855 4610.64,729.5 4610.64,729.5L4416.41,1080.18C4394.49,1116.95 4362.76,1147.61 4323.73,1166.52C4285.5,1140.52 4288.25,1088.65 4319.05,1041.43C4377.34,1033.39 4426.9,1018.34 4446.89,993.801L4448.43,986.104L4314.03,986.104L4314.18,979.086L4042.43,984.881L4047.62,1002.87C4228.27,1047.58 4198.11,1114.83 4140.78,1165.28Z" style="fill:url(#_Radial1);"/>
            </g>
            <g transform="matrix(2.53275,0,0,3.16349,2071.78,1372.97)">
                <g transform="matrix(127.049,0,0,129.904,439.706,482.835)">
                    <path d="M0.552,-0.588L0.301,-0.588C0.242,-0.588 0.222,-0.568 0.222,-0.512L0.222,-0.413L0.483,-0.413L0.473,-0.289L0.222,-0.289L0.222,-0L0.083,-0L0.083,-0.567C0.083,-0.672 0.123,-0.712 0.236,-0.712L0.552,-0.712L0.552,-0.588Z" style="fill:rgb(39,39,39);fill-rule:nonzero;"/>
                </g>
                <g transform="matrix(127.049,0,0,129.904,514.665,482.835)">
                    <path d="M0.382,-0.258L0.382,-0.31C0.382,-0.392 0.371,-0.462 0.271,-0.462C0.183,-0.462 0.161,-0.39 0.161,-0.314L0.161,-0.262C0.161,-0.19 0.18,-0.103 0.271,-0.103C0.371,-0.103 0.382,-0.19 0.382,-0.258ZM0.512,-0.288C0.512,-0.106 0.47,0.014 0.271,0.014C0.075,0.014 0.031,-0.108 0.031,-0.288C0.031,-0.454 0.076,-0.579 0.271,-0.579C0.459,-0.579 0.512,-0.466 0.512,-0.288Z" style="fill:rgb(39,39,39);fill-rule:nonzero;"/>
                </g>
                <g transform="matrix(127.049,0,0,129.904,583.653,482.835)">
                    <path d="M0.376,-0.569L0.34,-0.441C0.306,-0.454 0.249,-0.443 0.183,-0.404L0.183,-0L0.053,-0L0.053,-0.571L0.15,-0.571L0.18,-0.521L0.318,-0.578C0.34,-0.581 0.357,-0.583 0.376,-0.569Z" style="fill:rgb(39,39,39);fill-rule:nonzero;"/>
                </g>
                <g transform="matrix(127.049,0,0,129.904,633.202,482.835)">
                    <path d="M0.353,-0.567L0.483,-0.575L0.483,-0.026C0.483,0.099 0.413,0.17 0.271,0.17C0.173,0.17 0.059,0.137 0.059,0.014L0.18,0.008C0.18,0.044 0.203,0.06 0.269,0.06C0.338,0.06 0.352,0.021 0.352,-0.033L0.357,-0.119L0.217,-0.044C0.057,-0.044 0.026,-0.168 0.026,-0.291C0.026,-0.431 0.034,-0.567 0.216,-0.567L0.353,-0.567ZM0.353,-0.232L0.353,-0.45L0.254,-0.45C0.176,-0.45 0.156,-0.396 0.156,-0.291C0.156,-0.226 0.176,-0.181 0.254,-0.181L0.353,-0.232Z" style="fill:rgb(39,39,39);fill-rule:nonzero;"/>
                </g>
                <g transform="matrix(127.049,0,0,129.904,703.714,482.835)">
                    <path d="M0.501,-0.255L0.168,-0.255C0.168,-0.16 0.186,-0.105 0.291,-0.105C0.364,-0.105 0.385,-0.168 0.385,-0.194L0.502,-0.194C0.502,-0.045 0.412,0.013 0.29,0.013C0.114,0.013 0.039,-0.055 0.039,-0.306C0.039,-0.496 0.121,-0.578 0.286,-0.578C0.451,-0.578 0.503,-0.47 0.503,-0.337C0.503,-0.312 0.502,-0.283 0.501,-0.255ZM0.171,-0.344L0.385,-0.344C0.385,-0.434 0.351,-0.47 0.282,-0.47C0.22,-0.47 0.171,-0.436 0.171,-0.344Z" style="fill:rgb(39,39,39);fill-rule:nonzero;"/>
                </g>
                <g transform="matrix(127.049,0,0,129.904,773.337,482.835)">
                    <path d="M0.49,-0L0.149,-0C0.1,-0 0.043,-0.017 0.043,-0.078C0.043,-0.119 0.067,-0.145 0.098,-0.18L0.205,-0.299C0.246,-0.346 0.355,-0.463 0.355,-0.528C0.355,-0.552 0.342,-0.601 0.271,-0.601C0.2,-0.601 0.184,-0.555 0.184,-0.494L0.053,-0.494C0.053,-0.616 0.083,-0.718 0.278,-0.718C0.417,-0.718 0.497,-0.659 0.497,-0.552C0.497,-0.411 0.363,-0.296 0.328,-0.248L0.215,-0.117L0.49,-0.117L0.49,-0Z" style="fill:rgb(39,39,39);fill-rule:nonzero;"/>
                </g>
                <g transform="matrix(127.049,0,0,129.904,842.96,482.835)">
                    <path d="M0.62,-0.359L0.621,-0.282C0.617,-0.203 0.609,-0.129 0.548,-0.068C0.501,-0.021 0.424,-0 0.35,-0C0.144,-0 0.083,-0.047 0.083,-0.187L0.083,-0.712L0.36,-0.712C0.434,-0.712 0.501,-0.691 0.548,-0.644C0.628,-0.564 0.617,-0.466 0.62,-0.359ZM0.481,-0.359C0.481,-0.467 0.477,-0.512 0.451,-0.544C0.427,-0.573 0.395,-0.588 0.347,-0.588L0.222,-0.588L0.222,-0.194C0.222,-0.141 0.252,-0.124 0.347,-0.124C0.395,-0.124 0.427,-0.139 0.451,-0.168C0.477,-0.2 0.481,-0.251 0.481,-0.359Z" style="fill:rgb(39,39,39);fill-rule:nonzero;"/>
                </g>
            </g>
        </g>
    </g>
    <defs>
        <radialGradient id="_Radial1" cx="0" cy="0" r="1" gradientUnits="userSpaceOnUse" gradientTransform="matrix(453.454,-589.796,589.796,453.454,4066.07,1203.57)"><stop offset="0" style="stop-color:rgb(222,16,136);stop-opacity:1"/><stop offset="0.5" style="stop-color:rgb(226,10,25);stop-opacity:1"/><stop offset="1" style="stop-color:rgb(255,122,13);stop-opacity:1"/></radialGradient>
    </defs>
</svg>
